<svg width="128" height="200" viewBox="0 0 128 200" fill="none" xmlns="http://www.w3.org/2000/svg">
<rect x="12" y="17" width="102" height="15" stroke="#757575" stroke-width="4"/>
<rect x="2" y="2" width="124" height="47" stroke="#757575" stroke-width="4"/>
<path d="M22.5882 152.021L32.6275 164.016H92.8627L102.902 152.021V128.032C102.902 128.032 94.3654 116.843 92.1568 111.445C89.647 105.448 87.8431 89.6109 102.902 101.606C112.238 109.042 112.941 110.039 117.961 116.037C122.98 122.034 128 152.021 128 164.016C128 176.011 107.922 200 107.922 200H67.7647C67.7647 200 48.9914 186.206 37.6471 176.011C-2.50981 140.026 -2.5098 116.037 22.5882 134.029C-2.5098 116.037 -7.52941 92.0474 22.5882 110.039C-7.52941 92.0474 -7.52941 68.0579 22.5882 86.05C-7.52941 68.0579 7.52941 56.0632 22.5882 65.0592V152.021Z" fill="#757575"/>
<path d="M99.9056 24V94.4348C99.9056 94.4348 97.7898 92.784 92.9077 94.1596C86.0728 98.2867 83.7135 107.366 91.5248 116.171L99.9056 129.652V159H27V24H99.9056ZM32.2075 135.522L36.7638 150.562L47.8302 153.13C24.5587 162.944 32.2075 139.557 32.2075 135.522ZM93.9658 156.065C83.5508 156.065 79.0755 156.065 79.0755 153.13H94.6981L93.9658 156.065ZM58.7335 87.2812C45.6105 87.2812 64.8361 84.6913 64.8361 94.4348C64.8361 104.178 67.2771 112.043 60.849 112.043C71.2641 112.043 55.0719 87.2812 55.0719 87.2812C49.8644 78.4769 58.408 71.1399 63.6156 65.2704C63.6156 65.2704 69.1485 87.2812 58.7335 87.2812ZM94.6981 29.8696H79.0755C97.7901 28.127 106.334 17.1216 94.6981 47.4783V29.8696ZM47.8302 29.8696L51.4101 52.8893L32.2075 47.4783C42.6226 47.4783 47.8302 41.6087 47.8302 29.8696Z" fill="#FCFA60"/>
<path d="M64 71.7239C59.4062 71.7254 54.8939 70.4909 50.9219 68.1457L49.3162 67.2081C48.8559 69.1735 48.5661 71.1762 48.4504 73.1931C46.4039 75.8928 43.9759 79.9164 43.2034 84.5553L42.6875 87.4062L50.1784 85.7611C51.8906 90.8885 55.3684 95.4117 57.7612 98.4054C57.2841 98.9846 56.8179 99.5908 56.3626 100.224C52.8509 105.11 52.5118 110.388 52.4997 110.609L52.375 113L54.7133 112.671C54.9555 112.636 60.1298 111.836 63.9794 108.777C67.8302 111.836 73.0009 112.631 73.2467 112.671L75.625 113L75.4603 110.609C75.4482 110.388 75.1104 105.11 71.5974 100.224C71.151 99.6022 70.692 99.0051 70.2206 98.4325C72.6219 95.4338 76.1057 90.9094 77.818 85.7759L85.3125 87.4062L84.8015 84.5553C84.0337 79.9422 81.6046 75.9321 79.5557 73.2349C79.4393 71.1899 79.1463 69.1592 78.6802 67.1663L77.0842 68.1396C73.1108 70.4875 68.5964 71.7243 64 71.7239Z" fill="#757575"/>
<path d="M59.8525 51.527C58.6561 52.2468 56.8373 53.5622 54.9749 55.734C53.0587 57.9947 51.5428 60.5759 50.4944 63.3629L52.8593 64.7373C56.2405 66.7326 60.0806 67.7845 63.9906 67.7864C67.9007 67.7883 71.7417 66.7403 75.1249 64.7484L77.4947 63.3026C76.4589 60.5447 74.9642 57.9883 73.076 55.745C69.7483 51.8395 65.5742 50 64 50C62.5093 50 60.7619 50.9844 59.8525 51.527ZM64 61.8125C64 62.2019 63.8863 62.5825 63.6734 62.9063C63.4605 63.23 63.158 63.4824 62.8039 63.6314C62.4499 63.7804 62.0603 63.8194 61.6845 63.7434C61.3086 63.6674 60.9634 63.4799 60.6925 63.2046C60.4215 62.9293 60.237 62.5785 60.1622 62.1966C60.0874 61.8147 60.1258 61.4188 60.2725 61.0591C60.4191 60.6993 60.6674 60.3919 60.9861 60.1755C61.3047 59.9592 61.6793 59.8437 62.0625 59.8437C62.5763 59.8437 63.0691 60.0512 63.4325 60.4204C63.7958 60.7896 64 61.2903 64 61.8125Z" fill="#757575"/>
<path d="M34.7695 144.621V146.412L33.2451 145.954V142.987H43V144.621H34.7695ZM43.2119 136.719C43.2119 137.147 43.1755 137.537 43.1025 137.888C43.0342 138.234 42.9202 138.542 42.7607 138.811C42.6012 139.079 42.3916 139.312 42.1318 139.508C41.8675 139.704 41.5439 139.866 41.1611 139.993C40.7783 140.116 40.3294 140.21 39.8145 140.273C39.2949 140.333 38.7002 140.362 38.0303 140.362C37.0231 140.362 36.196 140.294 35.5488 140.157C34.9017 140.016 34.3936 139.797 34.0244 139.501C33.6507 139.205 33.3932 138.829 33.252 138.373C33.1061 137.913 33.0332 137.361 33.0332 136.719C33.0332 136.081 33.1061 135.532 33.252 135.071C33.3932 134.611 33.6507 134.235 34.0244 133.943C34.3936 133.647 34.9017 133.431 35.5488 133.294C36.196 133.153 37.0231 133.082 38.0303 133.082C38.7002 133.082 39.2949 133.114 39.8145 133.178C40.3294 133.237 40.7783 133.33 41.1611 133.458C41.5439 133.581 41.8675 133.741 42.1318 133.937C42.3916 134.132 42.6012 134.365 42.7607 134.634C42.9202 134.903 43.0342 135.21 43.1025 135.557C43.1755 135.903 43.2119 136.29 43.2119 136.719ZM41.7012 136.719C41.7012 136.331 41.6283 136.015 41.4824 135.769C41.332 135.522 41.1064 135.331 40.8057 135.194C40.5049 135.053 40.1243 134.957 39.6641 134.907C39.2038 134.857 38.6592 134.832 38.0303 134.832C37.4014 134.832 36.8682 134.857 36.4307 134.907C35.9886 134.957 35.6309 135.053 35.3574 135.194C35.0794 135.331 34.8789 135.522 34.7559 135.769C34.6328 136.015 34.5713 136.331 34.5713 136.719C34.5713 137.106 34.6328 137.423 34.7559 137.669C34.8789 137.91 35.0771 138.102 35.3506 138.243C35.624 138.38 35.9818 138.473 36.4238 138.523C36.8613 138.574 37.3968 138.599 38.0303 138.599C38.6592 138.599 39.2061 138.574 39.6709 138.523C40.1312 138.473 40.5117 138.38 40.8125 138.243C41.1133 138.102 41.3366 137.91 41.4824 137.669C41.6283 137.423 41.7012 137.106 41.7012 136.719ZM43.2119 127.312C43.2119 127.741 43.1755 128.131 43.1025 128.481C43.0342 128.828 42.9202 129.135 42.7607 129.404C42.6012 129.673 42.3916 129.906 42.1318 130.102C41.8675 130.298 41.5439 130.459 41.1611 130.587C40.7783 130.71 40.3294 130.803 39.8145 130.867C39.2949 130.926 38.7002 130.956 38.0303 130.956C37.0231 130.956 36.196 130.888 35.5488 130.751C34.9017 130.61 34.3936 130.391 34.0244 130.095C33.6507 129.799 33.3932 129.423 33.252 128.967C33.1061 128.507 33.0332 127.955 33.0332 127.312C33.0332 126.674 33.1061 126.125 33.252 125.665C33.3932 125.205 33.6507 124.829 34.0244 124.537C34.3936 124.241 34.9017 124.024 35.5488 123.888C36.196 123.746 37.0231 123.676 38.0303 123.676C38.7002 123.676 39.2949 123.708 39.8145 123.771C40.3294 123.831 40.7783 123.924 41.1611 124.052C41.5439 124.175 41.8675 124.334 42.1318 124.53C42.3916 124.726 42.6012 124.959 42.7607 125.228C42.9202 125.496 43.0342 125.804 43.1025 126.15C43.1755 126.497 43.2119 126.884 43.2119 127.312ZM41.7012 127.312C41.7012 126.925 41.6283 126.608 41.4824 126.362C41.332 126.116 41.1064 125.925 40.8057 125.788C40.5049 125.647 40.1243 125.551 39.6641 125.501C39.2038 125.451 38.6592 125.426 38.0303 125.426C37.4014 125.426 36.8682 125.451 36.4307 125.501C35.9886 125.551 35.6309 125.647 35.3574 125.788C35.0794 125.925 34.8789 126.116 34.7559 126.362C34.6328 126.608 34.5713 126.925 34.5713 127.312C34.5713 127.7 34.6328 128.017 34.7559 128.263C34.8789 128.504 35.0771 128.696 35.3506 128.837C35.624 128.974 35.9818 129.067 36.4238 129.117C36.8613 129.167 37.3968 129.192 38.0303 129.192C38.6592 129.192 39.2061 129.167 39.6709 129.117C40.1312 129.067 40.5117 128.974 40.8125 128.837C41.1133 128.696 41.3366 128.504 41.4824 128.263C41.6283 128.017 41.7012 127.7 41.7012 127.312Z" fill="#757575"/>
</svg>
