<svg width="130" height="130" viewBox="0 0 130 130" fill="none" xmlns="http://www.w3.org/2000/svg">
<path d="M102.915 4.0625H27.0827C16.6116 4.0625 8.125 12.5775 8.125 23.0852V80.1531C8.125 86.3403 11.0886 91.8064 15.6488 95.2758L8.125 125.938H90.5734L84.0085 99.1758H102.917C113.39 99.1758 121.877 90.6608 121.877 80.1531V23.0852C121.875 12.5775 113.388 4.0625 102.915 4.0625ZM16.6502 73.123C16.6491 72.5014 16.7705 71.8858 17.0073 71.3112C17.2442 70.7366 17.5919 70.2142 18.0306 69.774C18.4693 69.3337 18.9905 68.9842 19.5643 68.7454C20.1381 68.5066 20.7533 68.3831 21.3748 68.382H77.3256C77.9472 68.3831 78.5624 68.5066 79.1362 68.7454C79.71 68.9842 80.2311 69.3337 80.6699 69.774C81.1086 70.2142 81.4563 70.7366 81.6932 71.3112C81.93 71.8858 82.0514 72.5014 82.0503 73.123V74.9003C82.0503 76.8788 80.8397 78.5708 79.1233 79.2797L77.4698 72.5441H21.2286L19.5752 79.2797C18.7086 78.9215 17.968 78.3141 17.4473 77.5344C16.9265 76.7547 16.6491 75.8379 16.6502 74.9003V73.123ZM34.4053 81.4287L33.4791 88.7473H28.1897L27.4097 93.3583H32.8961L31.7627 102.28C31.07 107.766 35.3966 112.531 41.4822 112.531C47.5678 112.531 52.3981 107.766 52.2803 102.28L51.8395 81.4308C51.803 79.822 53.4097 78.5545 55.4227 78.5545C57.4356 78.5545 59.1744 79.822 59.3125 81.4308L61.0736 102.28H61.0756C61.2706 104.583 59.4039 106.505 56.8994 106.505L57.2163 112.531C63.3019 112.531 67.6264 107.766 66.9317 102.28L65.8003 93.3583H71.2867L70.5047 88.7473H65.2173L64.2911 81.4287C64.025 79.3244 62.5706 77.5247 60.5455 76.3486H70.1939L77.7908 117.406H20.9056L28.4984 76.3486H38.1489C36.1258 77.5247 34.6714 79.3244 34.4053 81.4287ZM39.388 81.4287C39.5241 79.82 41.2628 78.5525 43.2758 78.5525L43.3916 76.3486H50.0663C48.167 77.5247 46.9036 79.3244 46.8609 81.4287L46.4202 102.278C46.3734 104.581 44.3036 106.502 41.8031 106.502C39.2986 106.502 37.4319 104.581 37.6269 102.278L39.388 81.4287ZM85.733 122.133H12.9634L24.1983 76.3486H26.7109L17.9542 119.962H80.7422L71.9855 76.3486H74.4961L85.733 122.133ZM98.5156 55.508C98.5164 56.1723 98.3863 56.8304 98.1328 57.4444C97.8792 58.0585 97.5071 58.6166 97.0378 59.0869C96.5685 59.5571 96.0112 59.9303 95.3976 60.1851C94.784 60.4399 94.1263 60.5713 93.4619 60.5719H21.8298C20.4891 60.5692 19.2043 60.0343 18.2578 59.0847C17.3113 58.1352 16.7806 56.8487 16.7822 55.508V21.0823C16.7809 20.4181 16.9104 19.7602 17.1633 19.146C17.4162 18.5319 17.7877 17.9736 18.2564 17.503C18.7251 17.0323 19.2819 16.6587 19.8951 16.4033C20.5082 16.1479 21.1656 16.0157 21.8298 16.0144H93.4619C94.1266 16.0149 94.7847 16.1465 95.3985 16.4015C96.0124 16.6566 96.5699 17.0301 97.0393 17.5008C97.5086 17.9715 97.8806 18.5301 98.1339 19.1446C98.3873 19.7592 98.517 20.4176 98.5156 21.0823V55.508ZM119.978 77.1773H110.971C110.472 77.1765 109.979 77.0775 109.518 76.8859C109.058 76.6943 108.639 76.4138 108.287 76.0605C107.935 75.7072 107.656 75.288 107.466 74.8269C107.276 74.3657 107.178 73.8716 107.179 73.3728V67.665C107.178 67.1662 107.276 66.6721 107.466 66.2109C107.656 65.7498 107.935 65.3306 108.287 64.9773C108.639 64.624 109.058 64.3436 109.518 64.1519C109.979 63.9603 110.472 63.8613 110.971 63.8605H119.978V77.1773ZM119.978 57.3219H110.971C109.964 57.3203 108.999 56.9188 108.288 56.2057C107.577 55.4927 107.178 54.5264 107.179 53.5194V47.8116C107.178 47.3127 107.276 46.8187 107.466 46.3575C107.656 45.8963 107.935 45.4772 108.287 45.1239C108.639 44.7706 109.058 44.4901 109.518 44.2985C109.979 44.1069 110.472 44.0078 110.971 44.007H119.978V57.3219ZM119.978 37.4705H110.971C110.472 37.4697 109.979 37.3706 109.518 37.179C109.058 36.9874 108.639 36.7069 108.287 36.3536C107.935 36.0003 107.656 35.5812 107.466 35.12C107.276 34.6588 107.178 34.1648 107.179 33.6659V27.9581C107.179 25.8598 108.877 24.1536 110.971 24.1536H119.978V37.4705Z" fill="#FCFA60"/>
</svg>
