<svg width="171" height="169" viewBox="0 0 171 169" fill="none" xmlns="http://www.w3.org/2000/svg">
<path d="M126.75 70.4167H63.375V49.2917C63.375 37.6448 72.853 28.1667 84.5 28.1667C96.1469 28.1667 105.625 37.6448 105.625 49.2917H119.708C119.708 29.8778 103.914 14.0833 84.5 14.0833C65.0861 14.0833 49.2916 29.8778 49.2916 49.2917V70.4167H42.25C38.5148 70.4167 34.9327 71.9005 32.2915 74.5416C29.6504 77.1827 28.1666 80.7649 28.1666 84.5V140.833C28.1666 144.568 29.6504 148.151 32.2915 150.792C34.9327 153.433 38.5148 154.917 42.25 154.917H126.75C130.485 154.917 134.067 153.433 136.708 150.792C139.35 148.151 140.833 144.568 140.833 140.833V84.5C140.833 80.7649 139.35 77.1827 136.708 74.5416C134.067 71.9005 130.485 70.4167 126.75 70.4167ZM70.8462 109.139C71.7117 105.825 73.7539 102.94 76.5913 101.022C79.4287 99.1043 82.8672 98.2848 86.2646 98.717C89.662 99.1491 92.786 100.803 95.0529 103.37C97.3198 105.937 98.5748 109.242 98.5833 112.667C98.5792 115.129 97.9262 117.548 96.69 119.678C95.4538 121.808 93.678 123.574 91.5416 124.799V140.833H77.4583V124.799C74.7922 123.274 72.701 120.916 71.5063 118.086C70.3116 115.257 70.0797 112.113 70.8462 109.139Z" fill="#FCFA60"/>
<rect width="7.05534" height="22.6517" transform="matrix(0.963459 0.267855 -0.589583 0.807707 145.802 23.8044)" fill="#FCFA60"/>
<rect width="7.05534" height="22.6517" transform="matrix(0.0151139 0.999886 -0.930693 0.3658 170.091 51.6281)" fill="#FCFA60"/>
<rect width="6.23505" height="23.9978" transform="matrix(0.632957 0.774187 -0.784905 0.619616 161.638 34.4166)" fill="#FCFA60"/>
</svg>
