<svg width="269" height="166" viewBox="0 0 269 166" fill="none" xmlns="http://www.w3.org/2000/svg">
<path d="M206.566 40.5724L268.648 50.271L235 165.517L171 154.493L185 141.631L180 125.829L194.5 113.334L188.5 97.9L203 84.6706L198 69.2362L212.5 56.3743L206.566 40.5724Z" fill="#FCFA60"/>
<path d="M0 38H145.534L155.502 51.9054L146.032 66.5426L156 81.5457L145.534 96.183L156 110.82L145.534 124.36L156 138.997L145.534 154H0V38Z" fill="#FCFA60"/>
<path d="M90.1037 96C90.1018 90.2207 91.6303 84.5439 94.5339 79.5469L95.6947 77.5268C93.2613 76.9477 90.7818 76.5832 88.2847 76.4375C84.9423 73.8629 79.9607 70.8084 74.2173 69.8365L70.6875 69.1875L72.7243 78.6115C66.3762 80.7656 60.776 85.1409 57.0695 88.1512C56.3525 87.551 55.6019 86.9645 54.8179 86.3917C48.7683 81.9737 42.2343 81.5471 41.96 81.5319L39 81.375L39.4068 84.3168C39.4509 84.6214 40.4412 91.1311 44.2284 95.9741C40.4412 100.819 39.457 107.324 39.4068 107.633L39 110.625L41.96 110.418C42.2343 110.403 48.7683 109.978 54.8179 105.558C55.5877 104.996 56.3271 104.419 57.036 103.826C60.7486 106.847 66.3503 111.23 72.7061 113.384L70.6875 122.812L74.2173 122.17C79.9287 121.204 84.8936 118.148 88.2329 115.57C90.7649 115.424 93.2791 115.055 95.7465 114.469L94.5415 112.461C91.6345 107.462 90.1033 101.783 90.1037 96Z" fill="#757575"/>
<path d="M115.109 90.7822C114.218 89.2771 112.59 86.9889 109.901 84.6458C107.102 82.2352 103.906 80.3281 100.456 79.0091L98.7538 81.9844C96.2835 86.2381 94.9812 91.0692 94.9788 95.9883C94.9764 100.907 96.274 105.74 98.7401 109.996L100.53 112.977C103.945 111.674 107.11 109.794 109.887 107.418C114.723 103.232 117 97.9805 117 96C117 94.1246 115.781 91.9263 115.109 90.7822ZM102.375 96C101.893 96 101.422 95.857 101.021 95.5892C100.62 95.3214 100.308 94.9407 100.123 94.4953C99.9386 94.0499 99.8903 93.5598 99.9844 93.087C100.078 92.6141 100.311 92.1798 100.651 91.8389C100.992 91.498 101.427 91.2659 101.9 91.1718C102.372 91.0778 102.862 91.1261 103.308 91.3105C103.753 91.495 104.134 91.8075 104.402 92.2083C104.67 92.6091 104.813 93.0804 104.813 93.5625C104.813 94.209 104.556 94.829 104.099 95.2861C103.641 95.7432 103.022 96 102.375 96Z" fill="#757575"/>
<path d="M221.954 58.5853L218.913 58.158L220.055 55.6794L225.091 56.3872L222.764 72.9471L219.99 72.5573L221.954 58.5853ZM233.355 74.8024C232.628 74.7002 231.975 74.5454 231.396 74.3379C230.825 74.1392 230.33 73.8724 229.911 73.5375C229.493 73.2025 229.148 72.7912 228.878 72.3035C228.608 71.808 228.411 71.2201 228.285 70.5398C228.168 69.8606 228.116 69.0763 228.131 68.1868C228.154 67.2907 228.246 66.2741 228.406 65.1368C228.646 63.427 228.959 62.0392 229.346 60.9732C229.74 59.9083 230.233 59.0979 230.824 58.5419C231.416 57.9782 232.115 57.6308 232.923 57.4997C233.739 57.362 234.692 57.3697 235.783 57.523C236.866 57.6753 237.781 57.9301 238.528 58.2874C239.275 58.6371 239.852 59.1639 240.258 59.8679C240.673 60.5652 240.919 61.4795 240.997 62.6107C241.082 63.743 241.005 65.164 240.765 66.8737C240.605 68.011 240.409 69.013 240.177 69.8797C239.953 70.7398 239.687 71.4796 239.379 72.099C239.079 72.7195 238.731 73.2307 238.336 73.6327C237.941 74.0269 237.496 74.3273 237.002 74.534C236.507 74.7406 235.958 74.8606 235.354 74.894C234.748 74.9352 234.082 74.9047 233.355 74.8024ZM233.715 72.2378C234.373 72.3302 234.928 72.282 235.38 72.0932C235.834 71.8966 236.213 71.5593 236.517 71.0813C236.828 70.6044 237.082 69.9812 237.276 69.2118C237.471 68.4424 237.644 67.5239 237.794 66.4562C237.944 65.3886 238.029 64.4774 238.048 63.7228C238.068 62.9604 237.991 62.3302 237.817 61.8323C237.651 61.3278 237.374 60.9417 236.985 60.6741C236.597 60.4065 236.074 60.2265 235.416 60.1341C234.759 60.0417 234.206 60.0706 233.759 60.2207C233.32 60.372 232.948 60.6629 232.642 61.0933C232.345 61.5249 232.101 62.1099 231.911 62.8484C231.721 63.5792 231.551 64.4822 231.4 65.5576C231.25 66.6252 231.162 67.5596 231.136 68.3606C231.111 69.154 231.179 69.8223 231.339 70.3655C231.507 70.9098 231.779 71.3346 232.154 71.6398C232.537 71.946 233.058 72.1454 233.715 72.2378ZM249.323 77.0466C248.596 76.9444 247.943 76.7896 247.365 76.582C246.793 76.3834 246.298 76.1166 245.879 75.7816C245.461 75.4467 245.116 75.0354 244.846 74.5476C244.576 74.0522 244.379 73.4643 244.253 72.784C244.136 72.1048 244.084 71.3204 244.099 70.431C244.122 69.5349 244.214 68.5182 244.374 67.381C244.614 65.6712 244.927 64.2833 245.314 63.2174C245.708 62.1525 246.201 61.3421 246.792 60.7861C247.384 60.2224 248.083 59.875 248.891 59.7439C249.707 59.6061 250.66 59.6139 251.751 59.7672C252.834 59.9194 253.749 60.1742 254.496 60.5316C255.244 60.8813 255.82 61.4081 256.226 62.1121C256.641 62.8094 256.887 63.7236 256.965 64.8548C257.05 65.9871 256.973 67.4081 256.733 69.1179C256.573 70.2552 256.377 71.2572 256.145 72.1239C255.921 72.984 255.656 73.7237 255.348 74.3432C255.047 74.9637 254.699 75.4749 254.304 75.8769C253.909 76.2711 253.464 76.5715 252.97 76.7781C252.475 76.9848 251.926 77.1048 251.322 77.1382C250.716 77.1793 250.05 77.1488 249.323 77.0466ZM249.683 74.482C250.341 74.5744 250.896 74.5262 251.349 74.3373C251.802 74.1407 252.181 73.8034 252.485 73.3255C252.796 72.8486 253.05 72.2254 253.245 71.456C253.439 70.6865 253.612 69.768 253.762 68.7004C253.912 67.6328 253.997 66.7216 254.016 65.9669C254.036 65.2045 253.959 64.5744 253.785 64.0765C253.619 63.572 253.342 63.1859 252.953 62.9183C252.565 62.6507 252.042 62.4707 251.384 62.3783C250.727 62.2858 250.174 62.3147 249.727 62.4649C249.288 62.6162 248.916 62.907 248.611 63.3375C248.313 63.7691 248.069 64.3541 247.879 65.0926C247.689 65.8233 247.519 66.7264 247.368 67.8017C247.218 68.8694 247.13 69.8037 247.104 70.6048C247.079 71.3982 247.147 72.0664 247.307 72.6097C247.476 73.154 247.747 73.5787 248.122 73.8839C248.505 74.1902 249.026 74.3896 249.683 74.482Z" fill="#757575"/>
<rect x="142" y="6.22618" width="10" height="24" transform="rotate(-25 142 6.22618)" fill="#FCFA60"/>
<rect x="201.143" y="4" width="10" height="24" transform="rotate(25 201.143 4)" fill="#FCFA60"/>
<rect x="171" y="0.174522" width="10" height="24" transform="rotate(-1 171 0.174522)" fill="#FCFA60"/>
</svg>
