<svg width="39" height="39" viewBox="0 0 39 39" fill="none" xmlns="http://www.w3.org/2000/svg">
<path d="M5.33486 17.7775C4.8784 18.2345 4.62201 18.854 4.62201 19.5C4.62201 20.1459 4.8784 20.7654 5.33486 21.2225L14.5259 30.4184C14.9831 30.8756 15.6033 31.1325 16.25 31.1325C16.8967 31.1325 17.5168 30.8756 17.9741 30.4184C18.4314 29.9611 18.6883 29.3409 18.6883 28.6942C18.6883 28.0476 18.4314 27.4274 17.9741 26.9701L12.9431 21.9375H31.6875C32.334 21.9375 32.9539 21.6807 33.4111 21.2235C33.8682 20.7664 34.125 20.1464 34.125 19.5C34.125 18.8535 33.8682 18.2335 33.4111 17.7764C32.9539 17.3193 32.334 17.0625 31.6875 17.0625H12.9431L17.9741 12.0315C18.2005 11.8051 18.3801 11.5363 18.5027 11.2404C18.6252 10.9446 18.6883 10.6276 18.6883 10.3074C18.6883 9.98715 18.6252 9.67009 18.5027 9.37426C18.3801 9.07844 18.2005 8.80964 17.9741 8.58323C17.7477 8.35681 17.4789 8.17721 17.1831 8.05467C16.8873 7.93214 16.5702 7.86907 16.25 7.86907C15.9298 7.86907 15.6127 7.93214 15.3169 8.05467C15.0211 8.17721 14.7523 8.35681 14.5259 8.58323L5.33486 17.7775Z" fill="white"/>
</svg>
