<svg width="335" height="301" viewBox="0 0 335 301" fill="none" xmlns="http://www.w3.org/2000/svg">
<rect x="83" y="112" width="130" height="35" fill="#757575"/>
<path d="M164.5 117.208L169.304 112.081C169.304 112.081 168.008 113.907 169.088 118.121C172.329 124.019 179.458 126.055 186.371 119.314L196.957 112.081L220 112.081V175H114L164.5 117.208ZM201.565 170.506L213.375 166.574L215.391 157.023C223.096 177.107 204.734 170.506 201.565 170.506ZM217.696 117.208C217.696 126.196 217.696 130.058 215.391 130.058V116.576L217.696 117.208ZM163.688 147.614C163.688 158.939 161.654 142.347 169.304 142.347C176.955 142.347 183.13 140.24 183.13 145.788C183.13 136.799 163.688 150.774 163.688 150.774C156.774 155.268 151.014 147.894 146.405 143.4C146.405 143.4 163.688 138.625 163.688 147.614ZM132.435 133.5L146.405 135.5C145.037 119.349 145 126 132.435 116.576V133.5ZM118.609 157.023L136.683 153.934L132.435 170.506C132.435 161.517 127.826 157.023 118.609 157.023Z" fill="#FCFA60"/>
<path d="M169 112.081L128.5 112.5C128.5 112.5 131.5 119.5 130 121C124.5 126.5 121 124.5 111.5 119L102.652 112.081H82V175L177 175L168 116L169 112.081ZM98.5217 170.506L87.9375 166.574L86.1304 157.023C79.2249 177.107 95.6821 170.506 98.5217 170.506ZM84.0652 117.208C84.0652 126.196 84.0652 130.058 86.1304 130.058V116.576L84.0652 117.208ZM132.469 147.614C132.469 158.939 134.291 142.347 127.435 142.347C120.578 142.347 115.043 140.24 115.043 145.788C115.043 136.799 132.469 150.774 132.469 150.774C138.664 155.268 143.827 147.894 147.958 143.4C147.958 143.4 132.469 138.625 132.469 147.614ZM144.5 133.5L172.87 130.058C154.5 140 162.5 115 160.478 116.576L144.5 133.5ZM172.87 157.023L156.671 153.934L160.478 170.506C160.478 161.517 164.609 157.023 172.87 157.023Z" fill="#FCFA60"/>
<path d="M138.678 117.982C138.678 118.482 139.358 123.482 132.178 123.482C124.998 123.482 107.5 110.5 108 111.5C108.5 102 121.498 106.982 128.677 106.982C133.678 106.982 139.178 113.982 138.678 117.982Z" fill=""/>
<path d="M165.108 121.487C164.736 121.153 160.566 118.312 165.37 112.977C168.5 103.025 191.53 103.324 190.452 103.026C197.177 109.755 192.304 110.664 187.5 116C184.154 119.716 169.5 125.442 165.108 121.487Z" fill="white"/>
<path d="M212.279 179.588L222.709 170.961V119.196L212.279 110.569H191.419C191.419 110.569 181.689 117.905 176.996 119.803C171.781 121.96 158.01 123.51 168.44 110.569C174.906 102.545 175.773 101.941 180.989 97.6275C186.204 93.3137 212.279 89 222.709 89C233.14 89 254 106.255 254 106.255V140.765C254 140.765 242.005 156.898 233.14 166.647C201.849 201.157 180.989 201.157 196.634 179.588C180.989 201.157 160.128 205.471 175.773 179.588C160.128 205.471 139.268 205.471 154.913 179.588C139.268 205.471 128.838 192.529 136.66 179.588H212.279Z" fill="#757575"/>
<path d="M155.972 196.367C155.863 197.205 156.57 201 150.259 201C143.949 201 128.57 190.064 129.009 190.906C129.449 182.903 140.19 182 146.5 182C150.895 182 156.412 192.997 155.972 196.367Z" fill="white"/>
<path d="M170 192C170.178 191.252 169.5 196.092 163.795 196.092C157.623 194.78 144.853 180.885 145.108 181.801C147.202 174.064 158.328 176.688 164.5 178C168.799 178.914 171.13 188.795 170 192Z" fill="blue"/>
<path d="M89.4162 179.588L78.8121 170.961V119.196L89.4162 110.569H110.624C110.624 110.569 120.516 117.905 125.288 119.803C130.59 121.96 144.59 123.51 133.986 110.569C127.412 102.545 126.53 101.941 121.228 97.6275C115.926 93.3137 89.4162 89 78.8121 89C68.2081 89 47 106.255 47 106.255L47 139.5C47 139.5 59.1947 156.898 68.2081 166.647C100.02 201.157 121.228 201.157 105.322 179.588C121.228 201.157 142.436 205.471 126.53 179.588C142.436 205.471 163.644 205.471 147.738 179.588C163.644 205.471 174.248 192.529 166.295 179.588H89.4162Z" fill="#757575"/>
<path d="M158.345 144.5C158.344 140.277 159.461 136.128 161.582 132.477L162.431 131C160.653 130.577 158.841 130.311 157.016 130.204C154.573 128.323 150.933 126.091 146.736 125.381L144.156 124.906L145.645 131.793C141.006 133.367 136.913 136.565 134.205 138.764C133.681 138.326 133.132 137.897 132.559 137.479C128.138 134.25 123.363 133.938 123.163 133.927L121 133.812L121.297 135.962C121.33 136.185 122.053 140.942 124.821 144.481C122.053 148.021 121.334 152.775 121.297 153.001L121 155.187L123.163 155.036C123.363 155.025 128.138 154.714 132.559 151.485C133.122 151.074 133.662 150.652 134.18 150.219C136.893 152.427 140.987 155.629 145.631 157.204L144.156 164.094L146.736 163.624C150.909 162.918 154.538 160.685 156.978 158.801C158.828 158.694 160.665 158.425 162.469 157.996L161.588 156.529C159.464 152.876 158.345 148.726 158.345 144.5Z" fill="#757575"/>
<path d="M176.618 140.687C175.967 139.587 174.777 137.915 172.812 136.203C170.767 134.441 168.431 133.047 165.91 132.084L164.666 134.258C162.861 137.366 161.909 140.897 161.907 144.491C161.906 148.086 162.854 151.617 164.656 154.728L165.964 156.906C168.459 155.954 170.772 154.58 172.802 152.844C176.336 149.785 178 145.947 178 144.5C178 143.13 177.109 141.523 176.618 140.687ZM167.312 144.5C166.96 144.5 166.616 144.396 166.323 144.2C166.03 144.004 165.802 143.726 165.667 143.4C165.532 143.075 165.497 142.717 165.565 142.371C165.634 142.026 165.804 141.708 166.053 141.459C166.302 141.21 166.619 141.04 166.965 140.972C167.31 140.903 167.669 140.938 167.994 141.073C168.32 141.208 168.598 141.436 168.794 141.729C168.989 142.022 169.094 142.366 169.094 142.719C169.094 143.191 168.906 143.644 168.572 143.978C168.238 144.312 167.785 144.5 167.312 144.5Z" fill="#757575"/>
<path d="M90.3789 121.77H88.5879L89.0459 120.245H92.0127V130H90.3789V121.77ZM98.2812 130.212C97.8529 130.212 97.4632 130.175 97.1123 130.103C96.766 130.034 96.4583 129.92 96.1895 129.761C95.9206 129.601 95.6882 129.392 95.4922 129.132C95.2962 128.868 95.1344 128.544 95.0068 128.161C94.8838 127.778 94.7904 127.329 94.7266 126.814C94.6673 126.295 94.6377 125.7 94.6377 125.03C94.6377 124.023 94.7061 123.196 94.8428 122.549C94.984 121.902 95.2028 121.394 95.499 121.024C95.7952 120.651 96.1712 120.393 96.627 120.252C97.0872 120.106 97.6387 120.033 98.2812 120.033C98.9193 120.033 99.4684 120.106 99.9287 120.252C100.389 120.393 100.765 120.651 101.057 121.024C101.353 121.394 101.569 121.902 101.706 122.549C101.847 123.196 101.918 124.023 101.918 125.03C101.918 125.7 101.886 126.295 101.822 126.814C101.763 127.329 101.67 127.778 101.542 128.161C101.419 128.544 101.259 128.868 101.063 129.132C100.868 129.392 100.635 129.601 100.366 129.761C100.097 129.92 99.7897 130.034 99.4434 130.103C99.097 130.175 98.7096 130.212 98.2812 130.212ZM98.2812 128.701C98.6686 128.701 98.9854 128.628 99.2314 128.482C99.4775 128.332 99.6689 128.106 99.8057 127.806C99.9469 127.505 100.043 127.124 100.093 126.664C100.143 126.204 100.168 125.659 100.168 125.03C100.168 124.401 100.143 123.868 100.093 123.431C100.043 122.989 99.9469 122.631 99.8057 122.357C99.6689 122.079 99.4775 121.879 99.2314 121.756C98.9854 121.633 98.6686 121.571 98.2812 121.571C97.8939 121.571 97.5771 121.633 97.3311 121.756C97.0895 121.879 96.8981 122.077 96.7568 122.351C96.6201 122.624 96.5267 122.982 96.4766 123.424C96.4264 123.861 96.4014 124.397 96.4014 125.03C96.4014 125.659 96.4264 126.206 96.4766 126.671C96.5267 127.131 96.6201 127.512 96.7568 127.812C96.8981 128.113 97.0895 128.337 97.3311 128.482C97.5771 128.628 97.8939 128.701 98.2812 128.701ZM107.688 130.212C107.259 130.212 106.869 130.175 106.519 130.103C106.172 130.034 105.865 129.92 105.596 129.761C105.327 129.601 105.094 129.392 104.898 129.132C104.702 128.868 104.541 128.544 104.413 128.161C104.29 127.778 104.197 127.329 104.133 126.814C104.074 126.295 104.044 125.7 104.044 125.03C104.044 124.023 104.112 123.196 104.249 122.549C104.39 121.902 104.609 121.394 104.905 121.024C105.201 120.651 105.577 120.393 106.033 120.252C106.493 120.106 107.045 120.033 107.688 120.033C108.326 120.033 108.875 120.106 109.335 120.252C109.795 120.393 110.171 120.651 110.463 121.024C110.759 121.394 110.976 121.902 111.112 122.549C111.254 123.196 111.324 124.023 111.324 125.03C111.324 125.7 111.292 126.295 111.229 126.814C111.169 127.329 111.076 127.778 110.948 128.161C110.825 128.544 110.666 128.868 110.47 129.132C110.274 129.392 110.041 129.601 109.772 129.761C109.504 129.92 109.196 130.034 108.85 130.103C108.503 130.175 108.116 130.212 107.688 130.212ZM107.688 128.701C108.075 128.701 108.392 128.628 108.638 128.482C108.884 128.332 109.075 128.106 109.212 127.806C109.353 127.505 109.449 127.124 109.499 126.664C109.549 126.204 109.574 125.659 109.574 125.03C109.574 124.401 109.549 123.868 109.499 123.431C109.449 122.989 109.353 122.631 109.212 122.357C109.075 122.079 108.884 121.879 108.638 121.756C108.392 121.633 108.075 121.571 107.688 121.571C107.3 121.571 106.983 121.633 106.737 121.756C106.496 121.879 106.304 122.077 106.163 122.351C106.026 122.624 105.933 122.982 105.883 123.424C105.833 123.861 105.808 124.397 105.808 125.03C105.808 125.659 105.833 126.206 105.883 126.671C105.933 127.131 106.026 127.512 106.163 127.812C106.304 128.113 106.496 128.337 106.737 128.482C106.983 128.628 107.3 128.701 107.688 128.701Z" fill="#757575"/>
<path d="M285.215 32L325.505 73.7217L251 144L232 92.5L285.215 32Z" fill="#757575"/>
<path d="M52.9534 16.7266L0.0912779 41.3766L48.2365 141.766L83.8737 98.6311L52.9534 16.7266Z" fill="#757575"/>
<path d="M283.506 29.7967L330.047 75.4498L285.539 129.576L229.956 77.7446L283.506 29.7967Z" fill="#676666"/>
<path d="M230.163 78L238.577 85.1351L234.5 90L230.163 78Z" fill="#D9D9D9"/>
<path d="M285.5 129.665L271.077 125.069L275.577 120.569L285.5 129.665Z" fill="#D9D9D9"/>
<path d="M137.758 89.7996V68.6329L184.96 68.6329L185.118 57.9967L137.758 57.9967V36.8829L111.3 63.3413L137.758 89.7996Z" fill="white"/>
<path d="M163.798 209.49L163.429 230.654L116.234 229.83L115.89 240.462L163.243 241.288L162.874 262.399L189.791 236.406L163.798 209.49Z" fill="white"/>
</svg>
